
  <!-- 梅花 -->
  <svg id="clipping" width="30" height="30" viewBox="0 0 30 30" fill="none" xmlns="http://www.w3.org/2000/svg">
      <path
        d="M22.0312 8.84766C22.0106 8.84766 21.9909 8.85141 21.9703 8.85141C22.0059 8.56125 22.0312 8.26828 22.0312 7.96875C22.0312 4.08609 18.8831 0.9375 15 0.9375C11.1159 0.9375 7.96875 4.08609 7.96875 7.96875C7.96875 8.26828 7.99359 8.56125 8.02969 8.85141C8.00906 8.85141 7.98937 8.84766 7.96875 8.84766C4.08469 8.84766 0.9375 11.9963 0.9375 15.8789C0.9375 19.7616 4.08469 22.9102 7.96875 22.9102C10.222 22.9102 12.2227 21.8456 13.5089 20.197L13.2422 22.4709C13.0055 24.1533 11.8388 25.6922 10.1658 25.9866L7.96875 26.4258V29.0625H22.0312V26.4258L19.8338 25.9861C18.1603 25.6917 16.9931 24.1538 16.7573 22.4705L16.4897 20.1966C17.7759 21.8456 19.777 22.9097 22.0308 22.9097C25.9139 22.9097 29.062 19.7611 29.062 15.8784C29.062 11.9958 25.9144 8.84766 22.0312 8.84766Z"
        fill="black"
      />
  </svg>
